<svg xmlns="http://www.w3.org/2000/svg" viewBox="0 0 256 256">
  <defs>
    <linearGradient id="g" x1="0" y1="0" x2="1" y2="1">
      <stop offset="0" stop-color="#ff5aa5"/>
      <stop offset="1" stop-color="#ff0037"/>
    </linearGradient>
    <filter id="s" x="-20%" y="-20%" width="140%" height="140%">
      <feDropShadow dx="0" dy="6" stdDeviation="6" flood-color="#000" flood-opacity="0.35"/>
    </filter>
  </defs>
  <path filter="url(#s)" fill="url(#g)" d="M128 224S28 168 28 96c0-33.1 26.9-60 60-60 19.7 0 37.2 9.5 48 24.2C146.8 45.5 164.3 36 184 36c33.1 0 60 26.9 60 60 0 72-100 128-116 128z"/>
  <path fill="rgba(255,255,255,0.25)" d="M84 66c-17 2-30 16-30 33 0 7 2 13 6 18 3-25 12-40 24-51z"/>
</svg>
