<svg xmlns="http://www.w3.org/2000/svg" viewBox="0 0 256 256">
  <defs>
    <linearGradient id="g" x1="0" y1="0" x2="1" y2="1">
      <stop offset="0" stop-color="#a78bfa"/>
      <stop offset="1" stop-color="#f472b6"/>
    </linearGradient>
    <filter id="s" x="-20%" y="-20%" width="140%" height="140%">
      <feDropShadow dx="0" dy="6" stdDeviation="6" flood-color="#000" flood-opacity="0.35"/>
    </filter>
  </defs>
  <g filter="url(#s)" fill="url(#g)">
    <path d="M128 28l18 58 58 18-58 18-18 58-18-58-58-18 58-18 18-58z"/>
    <path d="M206 140l8 26 26 8-26 8-8 26-8-26-26-8 26-8 8-26z"/>
    <path d="M54 154l6 20 20 6-20 6-6 20-6-20-20-6 20-6 6-20z"/>
  </g>
</svg>
